HIERARCHY
ROOT Pelvis
{
	OFFSET 0.000000 0.000000 0.000000
	CHANNELS 6 Xposition Yposition Zposition Xrotation Yrotation Zrotation
	JOINT LeftUpLeg_virtual
	{
		OFFSET 0.000000 0.000000 0.000000
		CHANNELS 3 Xrotation Yrotation Zrotation
		JOINT LeftUpLeg
		{
			OFFSET 18.735201 -5.666702 -4.541200
			CHANNELS 3 Xrotation Yrotation Zrotation
			JOINT LeftLeg
			{
				OFFSET -0.021200 -31.938179 0.493100
				CHANNELS 3 Xrotation Yrotation Zrotation
				JOINT LeftFoot
				{
					OFFSET 0.021200 -31.938179 -4.336299
					CHANNELS 3 Xrotation Yrotation Zrotation
					JOINT LeftToeBase
					{
						OFFSET 0.943001 -26.722000 15.023500
						CHANNELS 3 Xrotation Yrotation Zrotation
						End Site
						{
							OFFSET 0 0 0
						}
					}
				}
			}
		}
	}
	JOINT RightUpLeg_virtual
	{
		OFFSET 0.000000 0.000000 0.000000
		CHANNELS 3 Xrotation Yrotation Zrotation
		JOINT RightUpLeg
		{
			OFFSET -18.735201 -5.666702 -4.541200
			CHANNELS 3 Xrotation Yrotation Zrotation
			JOINT RightLeg
			{
				OFFSET 0.018946 -31.938133 0.493100
				CHANNELS 3 Xrotation Yrotation Zrotation
				JOINT RightFoot
				{
					OFFSET -0.018946 -31.938126 -4.336299
					CHANNELS 3 Xrotation Yrotation Zrotation
					JOINT RightToeBase
					{
						OFFSET -0.943001 -26.722004 15.023500
						CHANNELS 3 Xrotation Yrotation Zrotation
						End Site
						{
							OFFSET 0 0 0
						}
					}
				}
			}
		}
	}
	JOINT Hips_virtual
	{
		OFFSET 0.000000 0.000000 0.000000
		CHANNELS 3 Xrotation Yrotation Zrotation
		JOINT Hips
		{
			OFFSET -0.000000 -0.000000 -0.000000
			CHANNELS 3 Xrotation Yrotation Zrotation
			JOINT Spine
			{
				OFFSET 0.000000 10.199997 -0.299500
				CHANNELS 3 Xrotation Yrotation Zrotation
				JOINT Spine1
				{
					OFFSET 0.000000 11.900002 -1.516600
					CHANNELS 3 Xrotation Yrotation Zrotation
					JOINT Spine2
					{
						OFFSET 0.000000 13.600006 -2.842500
						CHANNELS 3 Xrotation Yrotation Zrotation
						JOINT Neck_virtual
						{
							OFFSET 0.000000 0.000000 0.000000
							CHANNELS 3 Xrotation Yrotation Zrotation
							JOINT Neck
							{
								OFFSET 0.000000 9.624100 -2.890100
								CHANNELS 3 Xrotation Yrotation Zrotation
								JOINT Head
								{
									OFFSET 0.000000 14.068802 -1.351900
									CHANNELS 3 Xrotation Yrotation Zrotation
									End Site
									{
										OFFSET 0 0 0
									}
								}
							}
						}
						JOINT LeftShoulder_virtual
						{
							OFFSET 0.000000 0.000000 0.000000
							CHANNELS 3 Xrotation Yrotation Zrotation
							JOINT LeftShoulder
							{
								OFFSET 15.263000 10.923401 -0.547700
								CHANNELS 3 Xrotation Yrotation Zrotation
								JOINT LeftArm
								{
									OFFSET 25.438599 -2.830597 -13.032500
									CHANNELS 3 Xrotation Yrotation Zrotation
									JOINT LeftForeArm
									{
										OFFSET 29.960503 0.000000 0.000000
										CHANNELS 3 Xrotation Yrotation Zrotation
										JOINT LeftHand
										{
											OFFSET 27.849251 0.000000 0.000000
											CHANNELS 3 Xrotation Yrotation Zrotation
											End Site
											{
												OFFSET 0 0 0
											}
										}
									}
								}
							}
						}
						JOINT RightShoulder_virtual
						{
							OFFSET 0.000000 0.000000 0.000000
							CHANNELS 3 Xrotation Yrotation Zrotation
							JOINT RightShoulder
							{
								OFFSET -15.263000 10.923401 -0.547700
								CHANNELS 3 Xrotation Yrotation Zrotation
								JOINT RightArm
								{
									OFFSET -25.438599 -2.830597 -13.032500
									CHANNELS 3 Xrotation Yrotation Zrotation
									JOINT RightForeArm
									{
										OFFSET -29.960503 0.000000 0.000000
										CHANNELS 3 Xrotation Yrotation Zrotation
										JOINT RightHand
										{
											OFFSET -27.849251 0.000000 0.000000
											CHANNELS 3 Xrotation Yrotation Zrotation
											End Site
											{
												OFFSET 0 0 0
											}
										}
									}
								}
							}
						}
					}
				}
			}
		}
	}
}
MOTION
Frames: 11
Frame Time: 0.03333333
-4.600523 86.124596 -0.701815 0.000000 0.000000 0.000000 -6.148450 -67.946626 -6.020357 -47.115724 -7.330855 10.846469 46.255472 -4.160728 0.861192 -5.249486 -4.938024 -6.626546 0.000000 0.000000 0.000000 12.862808 -51.353768 10.214941 -27.175571 -20.353889 -16.748918 45.672942 -0.861013 -1.613477 -8.869948 -3.369618 8.802631 0.000000 0.000000 0.000000 4.696231 -20.372561 2.189208 19.866199 -49.885759 18.321357 20.687951 7.086514 7.169594 10.036774 3.649055 4.120875 0.000000 0.000000 0.000000 9.554742 4.193159 3.716622 2.641912 1.526158 2.317061 0.000000 0.000000 0.000000 9.898121 4.180042 1.358095 3.950950 0.557717 1.772387 -16.436487 -17.580989 -60.723469 -4.428078 -62.921192 -9.854127 0.000000 0.000000 0.000000 10.234302 4.257869 5.272838 0.256294 17.959764 26.996683 -23.575964 16.476163 51.448379 -7.713248 60.998029 8.881086 0.000000 0.000000 0.000000 
-4.174826 85.706619 -0.191881 0.000000 0.000000 0.000000 -7.141410 -70.333381 -6.935470 -47.383816 -8.071246 10.532900 46.657186 -4.370851 1.017594 -4.771992 -5.278455 -6.575158 0.000000 0.000000 0.000000 13.747686 -50.763670 11.395491 -26.319019 -20.589699 -15.659110 45.930625 -0.588632 -1.465997 -8.503627 -3.159988 9.182533 0.000000 0.000000 0.000000 2.857759 -19.999385 0.427405 23.598703 -50.601228 17.937258 19.256033 7.010210 7.152494 9.277718 3.839403 4.390020 0.000000 0.000000 0.000000 9.196049 4.098854 3.524006 2.633812 1.426962 2.297352 0.000000 0.000000 0.000000 9.447157 4.456692 1.822188 4.248368 0.755471 2.258946 -20.797318 -16.008712 -63.365495 -5.797497 -64.855733 -11.138900 0.000000 0.000000 0.000000 10.446952 4.671646 5.462457 0.831541 17.714195 28.439388 -26.771777 15.580578 49.679091 -9.846900 61.826094 9.066477 0.000000 0.000000 0.000000 
-4.444741 85.859962 -0.461618 0.000000 0.000000 0.000000 -10.636490 -70.604437 -10.321498 -48.659886 -7.932025 9.477722 45.007771 -4.258889 1.388827 -5.609490 -5.341137 -5.869720 0.000000 0.000000 0.000000 15.019333 -49.641876 12.019549 -24.764620 -20.540855 -15.205328 43.146059 -0.086392 -1.320258 -10.461063 -2.950684 9.641446 0.000000 0.000000 0.000000 4.302130 -20.321507 1.412837 26.828872 -52.939546 20.927222 19.786045 7.543742 6.250806 8.669596 4.166952 4.436097 0.000000 0.000000 0.000000 9.707805 4.186744 3.556528 2.855273 1.359139 2.273777 0.000000 0.000000 0.000000 9.622300 4.947557 1.865916 4.202175 -1.084293 1.396754 -22.890716 -18.749252 -66.347351 -5.915650 -68.993305 -12.093097 0.000000 0.000000 0.000000 10.514145 5.053399 5.292013 0.997861 17.492487 28.423115 -29.574985 14.183234 50.144213 -10.752596 58.248024 8.537182 0.000000 0.000000 0.000000 
-3.458277 85.752487 1.212900 0.000000 0.000000 0.000000 -9.150003 -71.923818 -9.727308 -47.619888 -8.011994 9.389183 46.194830 -4.500132 1.677516 -4.310703 -5.842607 -5.633800 0.000000 0.000000 0.000000 15.160525 -50.400188 12.065783 -24.970905 -20.686375 -15.488637 42.994217 -0.257921 -1.256346 -10.584654 -3.163687 9.597621 0.000000 0.000000 0.000000 3.435481 -19.461962 1.182036 26.026856 -51.714678 22.226102 18.671628 7.134253 7.470145 8.840476 4.357710 4.403788 0.000000 0.000000 0.000000 10.151611 4.067752 3.343930 3.002992 1.464712 2.059083 0.000000 0.000000 0.000000 10.249014 4.683713 1.840510 3.639598 -1.333478 1.388324 -23.972706 -19.593157 -68.909478 -9.388989 -70.204748 -15.835500 0.000000 0.000000 0.000000 11.788963 5.252272 5.102263 1.161643 16.672142 28.467115 -27.577741 14.399290 49.663798 -9.144208 60.874286 7.561698 0.000000 0.000000 0.000000 
-3.973834 85.035751 -0.511694 0.000000 0.000000 0.000000 -7.111914 -71.991485 -7.826591 -47.391220 -7.913086 10.202079 45.725723 -4.528681 1.467654 -4.397872 -5.784431 -5.944927 0.000000 0.000000 0.000000 15.446314 -51.813190 11.881439 -24.852535 -21.037780 -16.085522 42.234748 -0.295176 -1.158886 -11.090785 -3.289632 9.682182 0.000000 0.000000 0.000000 5.155763 -16.929066 1.145221 22.536494 -48.246616 20.361470 18.456681 7.316803 7.258004 7.980577 4.238857 4.793811 0.000000 0.000000 0.000000 9.890683 4.143475 3.562674 2.695195 1.284141 2.126950 0.000000 0.000000 0.000000 10.458563 4.781453 1.864129 3.475913 -1.090158 0.595651 -24.284331 -20.249277 -69.672103 -12.943979 -72.752948 -19.683340 0.000000 0.000000 0.000000 12.089965 5.559032 5.229883 0.932232 17.756234 28.403574 -29.166848 12.741806 48.735251 -9.483920 58.990623 7.229872 0.000000 0.000000 0.000000 
-3.311195 84.613998 0.324339 0.000000 0.000000 0.000000 -13.207257 -71.262355 -13.291139 -49.766497 -7.568971 8.766889 44.873148 -4.073710 1.168104 -5.213447 -5.097996 -6.073076 0.000000 0.000000 0.000000 15.356062 -51.529536 10.498949 -23.919029 -20.809003 -17.083324 42.590416 0.004256 -0.734484 -10.643631 -3.190582 10.559341 0.000000 0.000000 0.000000 3.589765 -19.775267 1.557324 21.775608 -42.872490 18.529994 18.290104 5.976409 7.870188 8.775688 4.034378 5.002639 0.000000 0.000000 0.000000 10.112892 3.964827 3.618417 3.052153 1.201136 2.084568 0.000000 0.000000 0.000000 10.485587 4.464964 1.875552 3.168753 -1.681927 0.676547 -23.774299 -18.668065 -68.615391 -10.809877 -71.829650 -17.752258 0.000000 0.000000 0.000000 12.261176 5.300071 5.369988 0.792814 16.200437 28.513130 -32.210486 11.664094 49.774987 -10.779322 59.784762 8.175736 0.000000 0.000000 0.000000 
-4.482596 85.055588 0.331347 0.000000 0.000000 0.000000 -16.465629 -70.726691 -15.664924 -51.687989 -7.503723 8.525871 45.246820 -4.023861 1.052679 -5.033250 -4.986240 -6.250920 0.000000 0.000000 0.000000 14.403651 -51.585161 10.450386 -24.977713 -20.690588 -16.745115 43.481722 0.039197 -0.086948 -9.946575 -3.441223 11.617751 0.000000 0.000000 0.000000 3.843911 -21.388611 2.160637 14.224123 -48.499298 14.657255 17.682620 6.845851 8.004225 8.842992 3.776853 5.177324 0.000000 0.000000 0.000000 9.827646 3.931656 3.805394 2.759656 1.048244 2.018941 0.000000 0.000000 0.000000 10.757999 4.897085 1.978193 3.212551 -1.279887 -0.294250 -23.232818 -18.899811 -69.085758 -14.583033 -73.738900 -22.079659 0.000000 0.000000 0.000000 12.475690 5.641373 5.693325 0.775766 15.991828 28.626615 -32.389375 11.570162 49.219644 -10.145292 58.298281 7.307842 0.000000 0.000000 0.000000 
-4.410058 85.147087 0.575197 0.000000 0.000000 0.000000 -16.425000 -71.770542 -16.289643 -51.327769 -7.478287 8.297242 44.962340 -3.995104 1.342448 -5.275441 -5.058914 -5.787992 0.000000 0.000000 0.000000 14.432997 -51.853113 10.014488 -24.893907 -20.700936 -17.270806 42.189498 0.411215 0.266525 -10.708488 -3.313928 12.358944 0.000000 0.000000 0.000000 4.203288 -21.945958 2.039487 10.164806 -49.586678 11.763948 19.907319 6.943105 6.914800 9.272596 3.932141 4.332146 0.000000 0.000000 0.000000 10.737319 4.188161 3.342181 3.016742 0.911741 1.924892 0.000000 0.000000 0.000000 11.028911 4.725649 1.837002 2.532604 -0.842580 -0.915528 -23.402462 -16.971400 -69.872282 -20.300256 -76.142840 -27.037411 0.000000 0.000000 0.000000 13.252246 5.824440 5.570944 0.290219 15.848143 29.682643 -34.039761 12.136743 48.168926 -11.586861 59.577404 7.730254 0.000000 0.000000 0.000000 
-3.797451 85.348610 0.462603 0.000000 0.000000 0.000000 -15.228146 -69.955631 -14.871951 -51.254006 -7.079268 8.554059 45.312691 -4.252750 1.466040 -4.979763 -5.393277 -5.792457 0.000000 0.000000 0.000000 14.085910 -50.807656 10.098957 -24.989412 -20.451516 -16.735072 42.659815 0.359254 0.248084 -10.385350 -3.315685 12.310191 0.000000 0.000000 0.000000 5.273072 -22.524234 2.825916 8.910673 -48.695164 10.896848 20.131107 6.308628 6.901835 9.268942 3.689730 4.557836 0.000000 0.000000 0.000000 10.657424 4.097897 3.571083 2.908125 0.805722 1.951098 0.000000 0.000000 0.000000 11.364264 4.796097 2.011066 2.740193 -0.755473 -0.377756 -23.498021 -17.247918 -69.063410 -20.133478 -76.250347 -27.006522 0.000000 0.000000 0.000000 13.332516 5.761339 5.733166 0.560179 15.963450 29.692366 -32.308229 13.581888 49.342215 -10.536001 60.153783 7.349687 0.000000 0.000000 0.000000 
-3.638567 85.286652 0.104401 0.000000 0.000000 0.000000 -15.314616 -68.276142 -14.827989 -51.605528 -6.571521 8.423421 45.536707 -4.479674 1.183670 -4.798958 -5.490791 -6.411809 0.000000 0.000000 0.000000 14.011626 -48.881895 9.518335 -24.244141 -19.927861 -16.681245 42.337201 0.343449 0.202459 -10.520063 -3.315833 12.201684 0.000000 0.000000 0.000000 5.599434 -22.758125 3.111738 8.941728 -48.345998 9.536954 20.664503 6.157023 6.614531 9.366537 3.615387 4.422845 0.000000 0.000000 0.000000 10.737868 4.199216 3.659568 2.851006 0.938708 1.897538 0.000000 0.000000 0.000000 11.497286 4.652999 2.123552 2.660802 -0.439779 -0.860436 -22.426745 -17.175214 -68.659104 -20.093354 -75.972180 -27.284225 0.000000 0.000000 0.000000 13.508392 5.748593 5.901662 0.454993 15.771868 29.370527 -31.368648 14.181231 49.802874 -10.332516 61.803691 7.482780 0.000000 0.000000 0.000000 
-3.880418 85.586853 0.586454 0.000000 0.000000 0.000000 -14.491283 -67.969965 -14.169215 -51.151997 -6.495873 8.486051 45.744840 -4.509818 1.422445 -4.612511 -5.635341 -6.074337 0.000000 0.000000 0.000000 13.456881 -48.567679 8.516099 -24.082120 -19.689617 -17.208025 41.950195 0.320296 0.283817 -10.593614 -3.374293 12.286236 0.000000 0.000000 0.000000 5.760756 -21.204124 3.068496 7.832486 -46.173622 7.669903 20.623901 6.507540 6.526849 9.177263 3.762737 4.579524 0.000000 0.000000 0.000000 10.972240 4.340688 3.878934 3.017267 1.022045 1.989595 0.000000 0.000000 0.000000 11.933297 4.719927 2.168791 2.841126 0.083473 -1.163903 -22.637904 -17.049638 -67.318017 -17.412582 -75.766291 -24.397444 0.000000 0.000000 0.000000 13.075531 5.699208 5.804655 0.314598 15.476148 29.036534 -30.391422 14.428904 50.011711 -10.166617 62.240283 7.360388 0.000000 0.000000 0.000000 
